<svg xmlns="http://www.w3.org/2000/svg" viewBox="0 0 422 111" role="img" aria-labelledby="t" xmlns:c2pa="http://c2pa.org/manifest"><metadata><c2pa:manifest>AAAWgmp1bWIAAAAeanVtZGMycGEAEQAQgAAAqgA4m3EDYzJwYQAAABZcanVtYgAAAEdqdW1kYzJtYQARABCAAACqADibcQN1cm46YzJwYTo3NWFjOWMwYy0wYzYyLTQ2M2QtYTAxMC0yNzJhYjcxZDBmYTUAAAADl2p1bWIAAAApanVtZGMyYXMAEQAQgAAAqgA4m3EDYzJwYS5hc3NlcnRpb25zAAAAALxqdW1iAAAARGp1bWRjYm9yABEAEIAAAKoAOJtxE2MycGEuaW5ncmVkaWVudC52MwAAAAAYYzJzaBkdsb0Wbsxo0o92Ndz2fccAAABwY2JvcqNpZGM6Zm9ybWF0bWltYWdlL3N2Zyt4bWxqaW5zdGFuY2VJRHgseG1wOmlpZDoyMmJmNmQ5NS01YWE5LTQ3NzAtYWM1OC04MjU3OWMzMGNiMzJscmVsYXRpb25zaGlwaHBhcmVudE9mAAAB4mp1bWIAAABBanVtZGNib3IAEQAQgAAAqgA4m3ETYzJwYS5hY3Rpb25zLnYyAAAAABhjMnNov17jmIW2tvZSd05+L5jsOAAAAZljYm9yomdhY3Rpb25zgqJmYWN0aW9ua2MycGEub3BlbmVkanBhcmFtZXRlcnOha2luZ3JlZGllbnRzgaJjdXJseC1zZWxmI2p1bWJmPWMycGEuYXNzZXJ0aW9ucy9jMnBhLmluZ3JlZGllbnQudjNkaGFzaFggsaf33mBnF+HePHkE2OWTvUbcnVA9LAWScIeTTFsEaQ2kZmFjdGlvbngdY29tLmFudGhyb3BpYy5jbGF1ZGUucHJvdmlkZWRqcGFyYW1ldGVyc6F4H2NvbS5hbnRocm9waWMub3JpZ2luLWNvbmZpZGVuY2VndW5rbm93bmtkZXNjcmlwdGlvbnhmQ2xhdWRlIHByb3ZpZGVkIHRoaXMgZmlsZSBhdCB0aGUgcmVxdWVzdCBvZiBhIHVzZXIgYW5kIG1heSBoYXZlIGNyZWF0ZWQgb3IgbW9kaWZpZWQgdGhlIGZpbGUgY29udGVudHMubXNvZnR3YXJlQWdlbnShZG5hbWVmQ2xhdWRlcmFsbEFjdGlvbnNJbmNsdWRlZPUAAADIanVtYgAAAEBqdW1kY2JvcgARABCAAACqADibcRNjMnBhLmhhc2guZGF0YQAAAAAYYzJzaHq38DanusTMoi6BbHaiSBAAAACAY2JvcqVjYWxnZnNoYTI1NmNwYWRNAAAAAAAAAAAAAAAAAGRoYXNoWCC4LXhGXH9SGh8pCF9vTgqOXZGBpFyurgbYiHQ1l9mMIWRuYW1lbmp1bWJmIG1hbmlmZXN0amV4Y2x1c2lvbnOBomVzdGFydBicZmxlbmd0aBkeBAAAAj5qdW1iAAAAJ2p1bWRjMmNsABEAEIAAAKoAOJtxA2MycGEuY2xhaW0udjIAAAACD2Nib3KlY2FsZ2ZzaGEyNTZpc2lnbmF0dXJleE1zZWxmI2p1bWJmPS9jMnBhL3VybjpjMnBhOjc1YWM5YzBjLTBjNjItNDYzZC1hMDEwLTI3MmFiNzFkMGZhNS9jMnBhLnNpZ25hdHVyZWppbnN0YW5jZUlEeCx4bXA6aWlkOjEwNWRhODk2LTVhZDAtNDVlYS1iMTgxLWEwNmUzZmE2Yzg5ZXJjcmVhdGVkX2Fzc2VydGlvbnODomN1cmx4LXNlbGYjanVtYmY9YzJwYS5hc3NlcnRpb25zL2MycGEuaW5ncmVkaWVudC52M2RoYXNoWCCxp/feYGcX4d48eQTY5ZO9RtydUD0sBZJwh5NMWwRpDaJjdXJseCpzZWxmI2p1bWJmPWMycGEuYXNzZXJ0aW9ucy9jMnBhLmFjdGlvbnMudjJkaGFzaFggjnz6zyFsrC5LByT6DUmwDhzewp1E8vjCGM8F5ImaQTOiY3VybHgpc2VsZiNqdW1iZj1jMnBhLmFzc2VydGlvbnMvYzJwYS5oYXNoLmRhdGFkaGFzaFgg0yygTvwZ65XaIbzTsOZgS28ll75Wqq9TCO4ARNOBZ7h0Y2xhaW1fZ2VuZXJhdG9yX2luZm+jZG5hbWVvQW50aHJvcGljIEZpbGVzZ3ZlcnNpb25lMS4wLjBrc3BlY1ZlcnNpb25lMi40LjAAABA4anVtYgAAAChqdW1kYzJjcwARABCAAACqADibcQNjMnBhLnNpZ25hdHVyZQAAABAIY2JvctKEWQISogEmGCFZAgowggIGMIIBjaADAgECAhRA5aAK7sI50L64g/oGQgU9Z1UTADAKBggqhkjOPQQDAzBJMRcwFQYDVQQKEw5BbnRocm9waWMsIFBCQzEuMCwGA1UEAxMlQW50aHJvcGljIENvbnRlbnQgQ3JlZGVudGlhbHMgUm9vdCBDQTAeFw0yNjA4MDcxODQzNTZaFw0yODA4MDYxOTQzNTZaMEQxFzAVBgNVBAoTDkFudGhyb3BpYywgUEJDMSkwJwYDVQQDEyBBbnRocm9waWMgQ2xhdWRlIENvbnRlbnQgU2lnbmluZzBZMBMGByqGSM49AgEGCCqGSM49AwEHA0IABJh6CmvLUBgFFNU0vUKlOVtE6djd17L5SuwX0LemFisBM3dkd/3cyjxFA3Qo5S46fX0/ihY0VZ7mfb9KF703t5OjWDBWMA4GA1UdDwEB/wQEAwIHgDAVBgNVHSUEDjAMBgorBgEEAYPoXgIBMAwGA1UdEwEB/wQCMAAwHwYDVR0jBBgwFoAUzlHiBIFOZFsj+OPEz5o+nMHXXMIwCgYIKoZIzj0EAwMDZwAwZAIwMXMdFJ4BetLLVY7ORuE9noqbbAZOZn/aArXyTwFAZfKrPzxF2vPoJNf1+UCdg1XGAjBwX1zd9WGqYkqmL5SFqw1QySjr1zJfpJM9+1rdDwSPLMOPOjKuiXjoU/pUUeG9RwmhY3BhZFkNngAAAAAAAAAAAAAAAAAAAAAAAAAAAAAAAAAAAAAAAAAAAAAAAAAAAAAAAAAAAAAAAAAAAAAAAAAAAAAAAAAAAAAAAAAAAAAAAAAAAAAAAAAAAAAAAAAAAAAAAAAAAAAAAAAAAAAAAAAAAAAAAAAAAAAAAAAAAAAAAAAAAAAAAAAAAAAAAAAAAAAAAAAAAAAAAAAAAAAAAAAAAAAAAAAAAAAAAAAAAAAAAAAAAAAAAAAAAAAAAAAAAAAAAAAAAAAAAAAAAAAAAAAAAAAAAAAAAAAAAAAAAAAAAAAAAAAAAAAAAAAAAAAAAAAAAAAAAAAAAAAAAAAAAAAAAAAAAAAAAAAAAAAAAAAAAAAAAAAAAAAAAAAAAAAAAAAAAAAAAAAAAAAAAAAAAAAAAAAAAAAAAAAAAAAAAAAAAAAAAAAAAAAAAAAAAAAAAAAAAAAAAAAAAAAAAAAAAAAAAAAAAAAAAAAAAAAAAAAAAAAAAAAAAAAAAAAAAAAAAAAAAAAAAAAAAAAAAAAAAAAAAAAAAAAAAAAAAAAAAAAAAAAAAAAAAAAAAAAAAAAAAAAAAAAAAAAAAAAAAAAAAAAAAAAAAAAAAAAAAAAAAAAAAAAAAAAAAAAAAAAAAAAAAAAAAAAAAAAAAAAAAAAAAAAAAAAAAAAAAAAAAAAAAAAAAAAAAAAAAAAAAAAAAAAAAAAAAAAAAAAAAAAAAAAAAAAAAAAAAAAAAAAAAAAAAAAAAAAAAAAAAAAAAAAAAAAAAAAAAAAAAAAAAAAAAAAAAAAAAAAAAAAAAAAAAAAAAAAAAAAAAAAAAAAAAAAAAAAAAAAAAAAAAAAAAAAAAAAAAAAAAAAAAAAAAAAAAAAAAAAAAAAAAAAAAAAAAAAAAAAAAAAAAAAAAAAAAAAAAAAAAAAAAAAAAAAAAAAAAAAAAAAAAAAAAAAAAAAAAAAAAAAAAAAAAAAAAAAAAAAAAAAAAAAAAAAAAAAAAAAAAAAAAAAAAAAAAAAAAAAAAAAAAAAAAAAAAAAAAAAAAAAAAAAAAAAAAAAAAAAAAAAAAAAAAAAAAAAAAAAAAAAAAAAAAAAAAAAAAAAAAAAAAAAAAAAAAAAAAAAAAAAAAAAAAAAAAAAAAAAAAAAAAAAAAAAAAAAAAAAAAAAAAAAAAAAAAAAAAAAAAAAAAAAAAAAAAAAAAAAAAAAAAAAAAAAAAAAAAAAAAAAAAAAAAAAAAAAAAAAAAAAAAAAAAAAAAAAAAAAAAAAAAAAAAAAAAAAAAAAAAAAAAAAAAAAAAAAAAAAAAAAAAAAAAAAAAAAAAAAAAAAAAAAAAAAAAAAAAAAAAAAAAAAAAAAAAAAAAAAAAAAAAAAAAAAAAAAAAAAAAAAAAAAAAAAAAAAAAAAAAAAAAAAAAAAAAAAAAAAAAAAAAAAAAAAAAAAAAAAAAAAAAAAAAAAAAAAAAAAAAAAAAAAAAAAAAAAAAAAAAAAAAAAAAAAAAAAAAAAAAAAAAAAAAAAAAAAAAAAAAAAAAAAAAAAAAAAAAAAAAAAAAAAAAAAAAAAAAAAAAAAAAAAAAAAAAAAAAAAAAAAAAAAAAAAAAAAAAAAAAAAAAAAAAAAAAAAAAAAAAAAAAAAAAAAAAAAAAAAAAAAAAAAAAAAAAAAAAAAAAAAAAAAAAAAAAAAAAAAAAAAAAAAAAAAAAAAAAAAAAAAAAAAAAAAAAAAAAAAAAAAAAAAAAAAAAAAAAAAAAAAAAAAAAAAAAAAAAAAAAAAAAAAAAAAAAAAAAAAAAAAAAAAAAAAAAAAAAAAAAAAAAAAAAAAAAAAAAAAAAAAAAAAAAAAAAAAAAAAAAAAAAAAAAAAAAAAAAAAAAAAAAAAAAAAAAAAAAAAAAAAAAAAAAAAAAAAAAAAAAAAAAAAAAAAAAAAAAAAAAAAAAAAAAAAAAAAAAAAAAAAAAAAAAAAAAAAAAAAAAAAAAAAAAAAAAAAAAAAAAAAAAAAAAAAAAAAAAAAAAAAAAAAAAAAAAAAAAAAAAAAAAAAAAAAAAAAAAAAAAAAAAAAAAAAAAAAAAAAAAAAAAAAAAAAAAAAAAAAAAAAAAAAAAAAAAAAAAAAAAAAAAAAAAAAAAAAAAAAAAAAAAAAAAAAAAAAAAAAAAAAAAAAAAAAAAAAAAAAAAAAAAAAAAAAAAAAAAAAAAAAAAAAAAAAAAAAAAAAAAAAAAAAAAAAAAAAAAAAAAAAAAAAAAAAAAAAAAAAAAAAAAAAAAAAAAAAAAAAAAAAAAAAAAAAAAAAAAAAAAAAAAAAAAAAAAAAAAAAAAAAAAAAAAAAAAAAAAAAAAAAAAAAAAAAAAAAAAAAAAAAAAAAAAAAAAAAAAAAAAAAAAAAAAAAAAAAAAAAAAAAAAAAAAAAAAAAAAAAAAAAAAAAAAAAAAAAAAAAAAAAAAAAAAAAAAAAAAAAAAAAAAAAAAAAAAAAAAAAAAAAAAAAAAAAAAAAAAAAAAAAAAAAAAAAAAAAAAAAAAAAAAAAAAAAAAAAAAAAAAAAAAAAAAAAAAAAAAAAAAAAAAAAAAAAAAAAAAAAAAAAAAAAAAAAAAAAAAAAAAAAAAAAAAAAAAAAAAAAAAAAAAAAAAAAAAAAAAAAAAAAAAAAAAAAAAAAAAAAAAAAAAAAAAAAAAAAAAAAAAAAAAAAAAAAAAAAAAAAAAAAAAAAAAAAAAAAAAAAAAAAAAAAAAAAAAAAAAAAAAAAAAAAAAAAAAAAAAAAAAAAAAAAAAAAAAAAAAAAAAAAAAAAAAAAAAAAAAAAAAAAAAAAAAAAAAAAAAAAAAAAAAAAAAAAAAAAAAAAAAAAAAAAAAAAAAAAAAAAAAAAAAAAAAAAAAAAAAAAAAAAAAAAAAAAAAAAAAAAAAAAAAAAAAAAAAAAAAAAAAAAAAAAAAAAAAAAAAAAAAAAAAAAAAAAAAAAAAAAAAAAAAAAAAAAAAAAAAAAAAAAAAAAAAAAAAAAAAAAAAAAAAAAAAAAAAAAAAAAAAAAAAAAAAAAAAAAAAAAAAAAAAAAAAAAAAAAAAAAAAAAAAAAAAAAAAAAAAAAAAAAAAAAAAAAAAAAAAAAAAAAAAAAAAAAAAAAAAAAAAAAAAAAAAAAAAAAAAAAAAAAAAAAAAAAAAAAAAAAAAAAAAAAAAAAAAAAAAAAAAAAAAAAAAAAAAAAAAAAAAAAAAAAAAAAAAAAAAAAAAAAAAAAAAAAAAAAAAAAAAAAAAAAAAAAAAAAAAAAAAAAAAAAAAAAAAAAAAAAAAAAAAAAAAAAAAAAAAAAAAAAAAAAAAAAAAAAAAAAAAAAAAAAAAAAAAAAAAAAAAAAAAAAAAAAAAAAAAAAAAAAAAAAAAAAAAAAAAAAAAAAAAAAAAAAAAAAAAAAAAAAAAAAAAAAAAAAAAAAAAAAAAAAAAAAAAAAAAAAAAAAAAAAAAAAAAAAAAAAAAAAAAAAAAAAAAAAAAAAAAAAAAAAAAAAAAAAAAAAAAAAAAAAAAAAAAAAAAAAAAAAAAAAAAAAAAAAAAAAAAAAAAAAAAAAAAAAAAAAAAAAAAAAAAAAAAAAAAAAAAAAAAAAAAAAAAAAAAAAAAAAAAAAAAAAAAAAAAAAAAAAAAAAAAAAAAAAAAAAAAAAAAAAAAAAAAAAAAAAAAAAAAAAAAAAAAAAAAAAAAAAAAAAAAAAAAAAAAAAAAAAAAAAAAAAAAAAAAAAAAAAAAAAAAAAAAAAAAAAAAAAAAAAAAAAAAAAAAAAAAAAAAAAAAAAAAAAAAAAAAAAAAAAAAAAAAAAAAAAAAAAAAAAAAAAAAAAAAAAAAAAAAAAAAAAAAAAAAAAAAAAAAAAAAAAAAAAAAAAAAAAAAAAAAAAAAAAAAAAAAAAAAAAAAAAAAAAAAAAAAAAAAAAAAAAAAAAAAAAAAAAAAAAAAAAAAAAAAAAAAAAAAAAAAAAAAAAAAAAAAAAAAAAAAAAAAAAAAAAAAAAAAAAAAAAAAAAAAAAAAAAAAAAAAAAAAAAAAAAAAAAAAAAAAAAAAAAAAAAAAAAAAAAAAAAAAAAAAAAAAAAAAAAAAAAAAAAAAAAAAAAAAAAAAAAAAAAAAAAAAAAAAAAAAAAAAAAAAAAAAAAAAAAAAAAAAAAAAAAAAAAAAAAAAAAAAAAAAAAAAAAAAAAAAAAAAAAAAAAAAAAAAAAAAAAAAAAAAAAAAAAAAAAAAAAAAAAAAAAAAAAAAAAAAAAAAAAAAAAAAAAAAAAAAAAAAAAAAAAAAAAAAAAAAAAAAAAAAAAAAAAAAAAAAAAAAAAAAAAAAAAAAAAAAAAAAAAAAAAAAAAAAAAAAAAAAAAAAAAAAAAAAAAAAAAAAAAAAAAAAAAAAAAAAAAAAAAAAAAAAAAAAAAAAAAAAAAAAAAAAAAAAAAAAAAAAAAAAAAAAAAAAAAAAAAAAAAAAAAAAAAAAAAAAAAAAAAAAAAAAAAAAAAAAAAAAAAAAAAAAAAAAAAAAAAAAAAAAAAAAAAAAAAAAAAAAAAAAAAAAAAAAAAAAAAAAAAAAAAAAAAAAAAAAAAAAAAAAAAAAAAAAAAAAAAAAAAAAAAAAAAAAAAAAAAAAAAAAAAAAAAAAAAAAAAAAAAAAAAAAAAAAAAAAAAAAAAAAAAAAAAAAAAAAAAAAAAAAAAAAAAAAAAAAAAAAAAAAAAAAAAAAPZYQGbFLNTPngfFnfS1NkDrMZYvyj/o9+3cMw2q+DWLG+Rorfqfbb3eIcSJJF4CAbQ9/qH1/+5bOHNYA4dDZ+rTtNo=</c2pa:manifest></metadata>
<title id="t">Make People Great At Workplace</title>
<path fill="#FFFFFF" d="M25.36 38.78H24.45L11.71 8.88V36.71L16.38 37.41V38.78H4.53V37.41L8.99 36.71V6.05L4.53 5.37V4H15.06L26.37 30.46L38.71 4H48.67V5.37L44.21 6.05V36.71L48.67 37.41V38.78H34.57V37.41L39.23 36.71V8.88Z M62.29 13.86Q66.29 13.86 68.17 15.49Q70.05 17.12 70.05 20.5V36.97L73.08 37.61V38.78H66.39L65.9 36.34Q62.94 39.3 58.35 39.3Q52.1 39.3 52.1 32.04Q52.1 29.6 53.05 28Q53.99 26.41 56.07 25.57Q58.14 24.72 62.08 24.65L65.74 24.54V20.73Q65.74 18.21 64.82 17.02Q63.9 15.83 61.98 15.83Q59.39 15.83 57.23 17.05L56.35 20.08H54.9V14.76Q59.1 13.86 62.29 13.86ZM65.74 26.36 62.34 26.46Q58.87 26.59 57.64 27.81Q56.4 29.03 56.4 31.88Q56.4 36.45 60.11 36.45Q61.88 36.45 63.16 36.04Q64.44 35.64 65.74 35.02Z M82.73 27.03 92.72 16.27 90.17 15.57V14.4H98.78V15.57L95.75 16.16L88.8 23.27L97.72 37.02L100.37 37.61V38.78H90.38V37.61L92.61 36.97L85.92 26.46L82.73 29.96V36.97L85.32 37.61V38.78H75.34V37.61L78.42 36.97V3.71L74.82 3.09V1.93H82.73Z M107.11 26.51V26.98Q107.11 30.56 107.9 32.54Q108.69 34.53 110.34 35.57Q111.99 36.6 114.66 36.6Q116.06 36.6 117.98 36.37Q119.9 36.14 121.14 35.85V37.3Q119.9 38.11 117.76 38.7Q115.62 39.3 113.39 39.3Q107.71 39.3 105.07 36.24Q102.44 33.18 102.44 26.41Q102.44 20.03 105.11 16.89Q107.78 13.75 112.74 13.75Q122.1 13.75 122.1 24.39V26.51ZM112.74 15.83Q110.04 15.83 108.6 18.01Q107.16 20.18 107.16 24.44H117.59Q117.59 19.8 116.4 17.81Q115.2 15.83 112.74 15.83Z M159.48 14.3Q159.48 10.02 157.48 8.18Q155.48 6.33 150.76 6.33H148.22V22.8H150.92Q155.3 22.8 157.39 20.81Q159.48 18.81 159.48 14.3ZM148.22 25.14V36.71L153.74 37.41V38.78H139.09V37.41L143.21 36.71V6.05L138.75 5.37V4H151.88Q164.64 4 164.64 14.25Q164.64 19.59 161.41 22.36Q158.18 25.14 152.14 25.14Z M173.51 26.51V26.98Q173.51 30.56 174.3 32.54Q175.09 34.53 176.74 35.57Q178.38 36.6 181.06 36.6Q182.46 36.6 184.38 36.37Q186.3 36.14 187.54 35.85V37.3Q186.3 38.11 184.16 38.7Q182.02 39.3 179.79 39.3Q174.1 39.3 171.47 36.24Q168.84 33.18 168.84 26.41Q168.84 20.03 171.51 16.89Q174.18 13.75 179.14 13.75Q188.5 13.75 188.5 24.39V26.51ZM179.14 15.83Q176.44 15.83 175 18.01Q173.56 20.18 173.56 24.44H183.99Q183.99 19.8 182.79 17.81Q181.6 15.83 179.14 15.83Z M214.88 26.46Q214.88 39.3 203.47 39.3Q197.97 39.3 195.17 36.01Q192.36 32.71 192.36 26.46Q192.36 20.29 195.17 17.02Q197.97 13.75 203.67 13.75Q209.22 13.75 212.05 16.96Q214.88 20.16 214.88 26.46ZM210.21 26.46Q210.21 20.86 208.57 18.34Q206.94 15.83 203.47 15.83Q200.07 15.83 198.55 18.24Q197.03 20.65 197.03 26.46Q197.03 32.35 198.58 34.8Q200.12 37.25 203.47 37.25Q206.89 37.25 208.55 34.71Q210.21 32.17 210.21 26.46Z M220.84 16.22 218.07 15.57V14.4H224.92L224.97 15.83Q226.06 14.89 227.88 14.32Q229.71 13.75 231.61 13.75Q236.28 13.75 238.83 16.99Q241.38 20.24 241.38 26.31Q241.38 32.5 238.6 35.9Q235.81 39.3 230.54 39.3Q227.61 39.3 224.97 38.73Q225.12 40.6 225.12 41.66V48.25L229.38 48.87V50.09H217.76V48.87L220.84 48.25ZM236.72 26.31Q236.72 21.33 235.1 18.9Q233.47 16.48 230.18 16.48Q227.15 16.48 225.12 17.33V36.81Q227.43 37.25 230.18 37.25Q236.72 37.25 236.72 26.31Z M252.98 36.97 257.15 37.61V38.78H244.52V37.61L248.67 36.97V3.71L244.52 3.09V1.93H252.98Z M264.96 26.51V26.98Q264.96 30.56 265.75 32.54Q266.54 34.53 268.19 35.57Q269.84 36.6 272.51 36.6Q273.91 36.6 275.83 36.37Q277.75 36.14 278.99 35.85V37.3Q277.75 38.11 275.61 38.7Q273.47 39.3 271.24 39.3Q265.56 39.3 262.93 36.24Q260.29 33.18 260.29 26.41Q260.29 20.03 262.96 16.89Q265.64 13.75 270.59 13.75Q279.95 13.75 279.95 24.39V26.51ZM270.59 15.83Q267.89 15.83 266.45 18.01Q265.01 20.18 265.01 24.44H275.44Q275.44 19.8 274.25 17.81Q273.05 15.83 270.59 15.83Z"/>
<path fill="#FFFFFF" d="M312.97 39.25Q305.89 39.25 301.95 35.53Q298 31.8 298 25.22Q298 18.71 300.7 13.8Q303.4 8.9 308.33 6.26Q313.26 3.61 319.64 3.61Q325.63 3.61 331.23 5.17L329.91 12.64H328.17L328.25 8.33Q324.95 5.69 319.48 5.69Q314.89 5.69 311.15 8.16Q307.42 10.64 305.32 15.2Q303.22 19.77 303.22 25.74Q303.22 31.13 305.88 34.15Q308.54 37.17 313.31 37.17Q315.62 37.17 317.95 36.51Q320.28 35.85 321.92 34.81L323.55 25.66L319.22 24.98L319.45 23.58H332.29L332.06 24.98L328.53 25.66L326.59 36.55Q322.67 38.05 319.51 38.65Q316.34 39.25 312.97 39.25Z M352.21 13.75Q353.51 13.75 354.26 13.96L353.12 20.34H352.01L351.02 17.05Q348.94 17.05 346.73 18.63Q344.51 20.21 342.67 22.8L339.89 38.78H335.59L339.56 16.22L336.5 15.57L336.7 14.4H343.89L343.08 19.9Q345.03 16.97 347.43 15.36Q349.83 13.75 352.21 13.75Z M376.49 19.07Q376.49 22.6 372.13 25.09Q367.77 27.58 360.43 28.07L360.33 29.96Q360.33 33.26 361.72 34.93Q363.11 36.6 365.83 36.6Q368.16 36.6 370.14 35.81Q372.11 35.02 373.82 34.01L374.57 35.1Q372.18 37.12 369.53 38.21Q366.87 39.3 364.48 39.3Q360.28 39.3 358.01 36.95Q355.74 34.61 355.74 30.22Q355.74 25.89 357.57 22.14Q359.4 18.39 362.64 16.07Q365.88 13.75 369.43 13.75Q372.63 13.75 374.56 15.22Q376.49 16.68 376.49 19.07ZM360.64 26.44Q365.78 26.05 368.86 24.02Q371.95 22 371.95 19.07Q371.95 17.62 371.16 16.68Q370.37 15.75 368.86 15.75Q367.05 15.75 365.34 17.23Q363.62 18.71 362.38 21.2Q361.14 23.69 360.64 26.44Z M398.15 36.97 401.08 37.61 400.87 38.78H393.48L394.23 34.74Q389.85 39.33 386.22 39.33Q383.08 39.33 381.17 37.02Q379.26 34.71 379.26 30.66Q379.26 26.12 381.25 22.17Q383.23 18.21 386.55 16Q389.87 13.78 393.76 13.78Q396.9 13.78 399.68 14.87L400.84 13.99H402.24ZM397.39 17.07Q396.38 16.37 395.5 16.1Q394.62 15.83 393.32 15.83Q390.73 15.83 388.56 17.79Q386.4 19.74 385.15 23.06Q383.91 26.38 383.91 29.99Q383.91 32.76 385.05 34.42Q386.19 36.08 388.16 36.08Q391.09 36.08 394.57 32.48Z M411.09 34.27Q411.09 35.44 411.67 36.02Q412.26 36.6 413.16 36.6Q415.06 36.6 417.11 35.82L417.65 37.04Q414.46 39.3 411.19 39.3Q409.14 39.3 407.96 38.05Q406.78 36.81 406.78 34.58Q406.78 33.83 406.93 32.8Q407.07 31.78 409.77 16.58H406.58L406.78 15.41L410.23 14.4L413.79 8.88H415.45L414.49 14.4H420.06L419.65 16.58H414.07L411.56 30.82Q411.09 33.2 411.09 34.27Z"/>
<path fill="#FFFFFF" d="M206.99 99.86 204.85 93.95H196.15L194.03 99.86H191L198.89 79H202.24L209.99 99.86ZM200.52 81.23 200.34 81.83 199.27 85.11 196.94 91.65H204.1L201.42 83.92Z M212.94 85.32V83.13H215.57L216.47 78.77H218.32V83.13H225V85.32H218.32V95.41Q218.32 96.63 218.98 97.21Q219.64 97.8 221.14 97.8Q223.21 97.8 225.73 97.28V99.39Q223.12 100.11 220.55 100.11Q218.04 100.11 216.79 99.05Q215.54 97.99 215.54 95.7V85.32Z M263.75 99.86H260.53Q259.39 95.59 258.79 93.36Q258.2 91.14 257.53 88.17Q257.09 90.1 256.71 91.66Q256.33 93.23 254.49 99.86H251.27L248.01 79H250.93L252.62 91.91Q252.86 93.94 253.13 97.26Q253.62 95.13 253.95 93.74Q254.29 92.34 256.17 85.46H258.88Q259.95 89.38 260.56 91.62Q261.17 93.86 261.93 97.26L262.47 91.91L264.07 79H267Z M283.97 91.48Q283.97 95.7 282.03 97.93Q280.09 100.17 276.43 100.17Q272.84 100.17 270.93 97.91Q269.02 95.65 269.02 91.48Q269.02 87.16 270.98 84.99Q272.93 82.82 276.52 82.82Q280.29 82.82 282.13 84.97Q283.97 87.12 283.97 91.48ZM281.05 91.48Q281.05 88.15 279.99 86.51Q278.93 84.88 276.57 84.88Q274.17 84.88 273.06 86.55Q271.94 88.22 271.94 91.48Q271.94 94.73 273.06 96.42Q274.17 98.11 276.4 98.11Q278.86 98.11 279.95 96.46Q281.05 94.8 281.05 91.48Z M302.17 85.66Q300.44 85.37 298.9 85.37Q296.41 85.37 294.88 87.24Q293.34 89.11 293.34 92V99.86H290.56V89.02Q290.56 87.84 290.35 86.25Q290.14 84.66 289.76 83.13H292.4Q293.02 85.26 293.14 86.99H293.22Q293.99 85.26 294.74 84.45Q295.48 83.64 296.5 83.23Q297.52 82.82 298.99 82.82Q300.6 82.82 302.17 83.08Z M319.15 99.86 313.49 92.14 311.45 93.66V99.86H308.67V76.91H311.45V91.25L318.8 83.13H322.06L315.27 90.32L322.41 99.86Z M340.88 91.42Q340.88 100.17 334.81 100.17Q331.01 100.17 329.7 97.32H329.62Q329.68 97.45 329.68 99.89V106.43H326.88V86.59Q326.88 83.96 326.79 83.13H329.5Q329.51 83.19 329.54 83.58Q329.57 83.98 329.61 84.74Q329.65 85.51 329.65 85.88H329.71Q330.48 84.26 331.68 83.52Q332.88 82.79 334.81 82.79Q337.88 82.79 339.38 84.9Q340.88 87.01 340.88 91.42ZM338 91.42Q338 87.92 337.06 86.43Q336.11 84.94 334.09 84.94Q331.75 84.94 330.72 86.63Q329.68 88.32 329.68 91.76Q329.68 95.05 330.72 96.58Q331.75 98.11 334.06 98.11Q336.11 98.11 337.06 96.55Q338 94.99 338 91.42Z M355.94 97.59 360.28 97.66V99.86L354.56 99.8Q352.81 99.49 352.01 98.41Q351.67 97.94 351.62 95.87V79.11H347.15V76.91H354.4V96.19Q354.42 96.89 354.79 97.23Q355.12 97.52 355.94 97.59ZM356 97.66ZM354.4 96.19ZM354.65 99.86ZM351.62 97.66V95.87Z M379.05 98.14Q379.45 98.14 379.96 98.03V99.77Q378.91 100.01 377.81 100.01Q376.27 100.01 375.57 99.2Q374.86 98.39 374.77 96.66H374.68Q373.67 98.53 372.3 99.35Q370.93 100.17 368.92 100.17Q366.48 100.17 365.24 98.84Q364.01 97.51 364.01 95.19Q364.01 89.79 371.03 89.72L374.68 89.65V88.74Q374.68 86.72 373.86 85.83Q373.04 84.94 371.24 84.94Q369.42 84.94 368.61 85.59Q367.81 86.24 367.66 87.6L364.75 87.33Q365.46 82.82 371.29 82.82Q374.38 82.82 375.94 84.26Q377.49 85.71 377.49 88.45V95.65Q377.49 96.89 377.81 97.52Q378.14 98.14 379.05 98.14ZM369.64 98.05Q371.12 98.05 372.26 97.34Q373.41 96.63 374.04 95.44Q374.68 94.25 374.68 92.98V91.6L371.74 91.66Q369.91 91.69 368.95 92.07Q368 92.44 367.46 93.2Q366.93 93.97 366.93 95.24Q366.93 96.5 367.62 97.28Q368.31 98.05 369.64 98.05Z M383.04 91.48Q383.04 87.3 385.04 85.06Q387.03 82.82 390.8 82.82Q393.62 82.82 395.44 84.17Q397.27 85.53 397.7 87.81L394.73 88.03Q394.48 86.62 393.49 85.81Q392.5 85 390.68 85Q388.24 85 387.1 86.51Q385.96 88.03 385.96 91.42Q385.96 94.85 387.1 96.43Q388.24 98.02 390.66 98.02Q392.33 98.02 393.43 97.2Q394.53 96.38 394.79 94.69L397.73 94.88Q397.53 96.36 396.61 97.58Q395.69 98.79 394.17 99.48Q392.66 100.17 390.79 100.17Q387 100.17 385.02 97.94Q383.04 95.71 383.04 91.48Z M405.01 92.08Q405.01 94.9 406.26 96.49Q407.5 98.08 409.67 98.08Q411.26 98.08 412.46 97.39Q413.66 96.7 414.06 95.51L416.5 96.21Q415.82 98.13 414 99.15Q412.19 100.17 409.67 100.17Q406.02 100.17 404.05 97.89Q402.09 95.62 402.09 91.39Q402.09 87.26 404.02 85.04Q405.94 82.82 409.57 82.82Q413.21 82.82 415.08 85.03Q416.95 87.24 416.95 91.71V92.08ZM409.61 84.88Q407.53 84.88 406.33 86.23Q405.12 87.58 405.04 89.95H414.07Q413.64 84.88 409.61 84.88Z"/>
</svg>
